<svg width="20" height="18" viewBox="0 0 20 18" fill="none" xmlns="http://www.w3.org/2000/svg">
<path d="M17.7778 2.2C19.0035 2.2 20 3.18484 20 4.4V13.2C20 14.4134 19.0035 15.4 17.7778 15.4H2.22222C0.994792 15.4 0 14.4134 0 13.2V4.4C0 3.18484 0.994792 2.2 2.22222 2.2H17.7778ZM9.44444 6.6C9.13889 6.6 8.88889 6.8475 8.88889 7.15C8.88889 7.4525 9.13889 7.7 9.44444 7.7H17.2222C17.5278 7.7 17.7778 7.4525 17.7778 7.15C17.7778 6.8475 17.5278 6.6 17.2222 6.6H9.44444ZM9.44444 11H17.2222C17.5278 11 17.7778 10.7525 17.7778 10.45C17.7778 10.1475 17.5278 9.9 17.2222 9.9H9.44444C9.13889 9.9 8.88889 10.1475 8.88889 10.45C8.88889 10.7525 9.13889 11 9.44444 11ZM5.69792 5.5C5.69792 5.11843 5.38542 4.80906 4.96875 4.80906C4.61458 4.80906 4.30208 5.11843 4.30208 5.5V5.70625C4.10764 5.7475 3.89236 5.80593 3.75 5.88156C3.23125 6.11531 2.78021 6.54843 2.67049 7.1775C2.60903 7.52812 2.64167 7.86843 2.78889 8.17437C2.93299 8.47687 3.15972 8.69 3.38993 8.84468C3.79167 9.11625 4.32292 9.27437 4.72917 9.39468L4.80556 9.41531C5.29167 9.56312 5.61806 9.66968 5.82292 9.8175C5.90972 9.87937 5.94097 9.9275 5.95139 9.95844C5.96528 9.98594 5.98611 10.0478 5.96181 10.1853C5.94097 10.3056 5.875 10.4087 5.68403 10.4878C5.47222 10.5772 5.12847 10.6219 4.68403 10.5531C4.47569 10.5187 4.10417 10.395 3.77431 10.285C3.69792 10.2575 3.62153 10.2334 3.55208 10.2094C3.18889 10.0891 2.79549 10.285 2.67431 10.6459C2.55312 11.0069 2.75 11.3953 3.11389 11.4847C3.1559 11.5294 3.20799 11.5466 3.26771 11.5672C3.51042 11.66 3.97222 11.8044 4.30208 11.88V12.1C4.30208 12.4816 4.61458 12.7909 4.96875 12.7909C5.38542 12.7909 5.69792 12.4816 5.69792 12.1V11.9109C5.88195 11.8766 6.0625 11.7941 6.22917 11.7528C6.77778 11.5225 7.21528 11.0756 7.32986 10.4225C7.39236 10.065 7.36458 9.72125 7.2257 9.40843C7.09028 9.09906 6.87153 8.87218 6.63889 8.70718C6.21875 8.40125 5.65625 8.23625 5.23611 8.10906L5.17708 8.10218C4.71528 7.95437 4.38194 7.85125 4.17014 7.70687C4.07986 7.645 4.05208 7.60375 4.04514 7.58656C4.03819 7.57281 4.01736 7.53156 4.03819 7.41468C4.05208 7.34593 4.10417 7.2325 4.32292 7.13625C4.51736 7.03656 4.89236 6.98156 5.31597 7.01593C5.46875 7.07093 5.9375 7.16031 6.07292 7.19468C6.44097 7.29437 6.82292 7.07437 6.92014 6.70656C7.02083 6.34218 6.79861 5.96406 6.42708 5.86781C6.27431 5.82656 5.92708 5.75781 5.69792 5.71656V5.5Z" fill="#2A4E96"/>
</svg>
