<svg width="41" height="41" viewBox="0 0 41 41" fill="none" xmlns="http://www.w3.org/2000/svg">
<g clip-path="url(#clip0_10_1708)">
<path d="M28.6314 22.481L21.8076 29.46C21.5431 29.7348 21.1934 29.87 20.8437 29.87C20.494 29.87 20.1451 29.7337 19.879 29.461L13.0551 22.4821C12.522 21.9369 12.522 21.0536 13.0551 20.5084C13.5882 19.9631 14.4519 19.9631 14.985 20.5084L19.4789 25.1068V11.7247C19.4789 10.9531 20.0901 10.3682 20.8053 10.3682C21.5205 10.3682 22.2085 10.9531 22.2085 11.7247V25.1068L26.7037 20.5095C27.2368 19.9642 28.1004 19.9642 28.6336 20.5095C29.1667 21.0547 29.1645 21.9358 28.6314 22.481Z" fill="#283593"/>
</g>
<rect x="0.5" y="0.5" width="39.9432" height="39.9432" stroke="#283593"/>
<defs>
<clipPath id="clip0_10_1708">
<rect width="16.3773" height="22.3326" fill="white" transform="translate(12.6553 8.93311)"/>
</clipPath>
</defs>
</svg>
