<svg width="62" height="62" viewBox="0 0 62 62" fill="none" xmlns="http://www.w3.org/2000/svg">
<path d="M0 31C0 13.8773 13.8773 0 31 0C48.1227 0 62 13.8773 62 31C62 48.1227 48.1227 62 31 62C13.8773 62 0 48.1227 0 31ZM45.0227 25.6477C46.3426 24.3277 46.3426 22.1723 45.0227 20.8523C43.7027 19.5324 41.5473 19.5324 40.2273 20.8523L27.125 33.9547L21.7727 28.6023C20.4527 27.2824 18.2973 27.2824 16.9773 28.6023C15.6574 29.9223 15.6574 32.0777 16.9773 33.3977L24.7273 41.1477C26.0473 42.4676 28.2027 42.4676 29.5227 41.1477L45.0227 25.6477Z" fill="#4DB6AC"/>
</svg>
