<svg width="15" height="20" viewBox="0 0 15 20" fill="none" xmlns="http://www.w3.org/2000/svg">
<path d="M15 5H10V0L15 5ZM10 6.25H15V18.125C15 19.1605 14.1605 20 13.125 20H1.875C0.839453 20 0 19.1602 0 18.125V1.875C0 0.839453 0.839453 0 1.875 0H8.75L8.75015 5C8.75 5.69141 9.30859 6.25 10 6.25ZM2.5 3.4375C2.5 3.60859 2.6418 3.75 2.8125 3.75H5.9375C6.10938 3.75 6.25 3.60859 6.25 3.4375V2.8125C6.25 2.6418 6.10938 2.5 5.9375 2.5H2.8125C2.6418 2.5 2.5 2.6418 2.5 2.8125V3.4375ZM2.8125 6.25H5.9375C6.10938 6.25 6.25 6.10938 6.25 5.9375V5.3125C6.25 5.14062 6.10938 5 5.9375 5H2.8125C2.6418 5 2.5 5.14062 2.5 5.3125V5.9375C2.5 6.10938 2.6418 6.25 2.8125 6.25ZM7.71484 12.375L7.46484 12.3125C6.57422 12.0391 6.59375 11.8789 6.625 11.7383C6.67871 11.4331 7.27305 11.3586 7.80742 11.4404C8.02594 11.4734 8.26562 11.5503 8.49453 11.6296C8.90039 11.77 9.34727 11.5539 9.48867 11.1476C9.63027 10.7398 9.4148 10.2945 9.00703 10.1527C8.72504 10.0557 8.49492 9.9934 8.28203 9.94672V9.6875C8.28203 9.25664 7.9323 8.90625 7.50078 8.90625C7.06926 8.90625 6.71953 9.2566 6.71953 9.6875V9.92156C5.84375 10.1094 5.22656 10.6563 5.08594 11.4727C4.79664 13.1461 6.38242 13.6113 7.05937 13.8102L7.28641 13.8761C8.43016 14.2032 8.41141 14.3132 8.37703 14.512C8.32332 14.8172 7.72898 14.8929 7.19305 14.8099C6.92203 14.7696 6.57547 14.6451 6.26883 14.5352L6.09426 14.4718C5.68762 14.3314 5.24152 14.5425 5.09738 14.9491C4.95395 15.3557 5.16695 15.8022 5.57395 15.9464L5.74059 16.005C6.04363 16.1139 6.38043 16.2233 6.71949 16.2984V16.5625C6.71949 16.9934 7.06922 17.3438 7.50074 17.3438C7.93227 17.3438 8.28199 16.9934 8.28199 16.5625V16.3182C9.15543 16.131 9.77457 15.5944 9.91598 14.778C10.207 13.0859 8.58594 12.6211 7.71484 12.375Z" fill="#2A4E96"/>
</svg>
