<svg width="20" height="18" viewBox="0 0 20 18" fill="none" xmlns="http://www.w3.org/2000/svg">
<g clip-path="url(#clip0_2_929)">
<path d="M10.5555 0.569938C10.5555 0.259703 10.7673 0 11.1111 0C15.4062 0 18.8889 3.44781 18.8889 7.7C18.8889 8.00938 18.625 8.25 18.3125 8.25H10.5555V0.569938ZM1.11108 9.35C1.11108 5.18031 4.23956 1.73044 8.26733 1.17734C8.61803 1.13403 8.88886 1.38737 8.88886 1.70534V9.9L14.3229 15.2797C14.5555 15.51 14.5382 15.8881 14.2708 16.0772C12.9097 17.0363 11.243 17.6 9.44442 17.6C4.84372 17.6 1.11108 13.9081 1.11108 9.35ZM19.3889 9.9C19.7083 9.9 19.9653 10.1681 19.9236 10.4844C19.6562 12.4059 18.7187 14.1144 17.3576 15.3759C17.1493 15.5409 16.8229 15.5547 16.6215 15.3553L11.1111 9.9H19.3889Z" fill="#2A4E96"/>
</g>
<defs>
<clipPath id="clip0_2_929">
<rect width="20" height="17.6" fill="white"/>
</clipPath>
</defs>
</svg>
