<svg width="20" height="16" viewBox="0 0 20 16" fill="none" xmlns="http://www.w3.org/2000/svg">
<g clip-path="url(#clip0_101_137)">
<path d="M10.5 0C11.3281 0 12 0.65957 12 1.47321V11.2885C10.8062 11.9453 10 13.1975 10 14.637C10 15.0329 10.1125 15.4012 10.3094 15.7143H7.5V13.2589C7.5 12.4456 6.82812 11.7857 6 11.7857C5.17188 11.7857 4.5 12.4456 4.5 13.2589V15.7143H1.5C0.671562 15.7143 0 15.0544 0 14.2411V1.47321C0 0.65957 0.671562 0 1.5 0H10.5ZM2 8.34821C2 8.6183 2.22375 8.83929 2.5 8.83929H3.5C3.775 8.83929 4 8.6183 4 8.34821V7.36607C4 7.09598 3.775 6.875 3.5 6.875H2.5C2.22375 6.875 2 7.09598 2 7.36607V8.34821ZM5.5 6.875C5.225 6.875 5 7.09598 5 7.36607V8.34821C5 8.6183 5.225 8.83929 5.5 8.83929H6.5C6.775 8.83929 7 8.6183 7 8.34821V7.36607C7 7.09598 6.775 6.875 6.5 6.875H5.5ZM8 8.34821C8 8.6183 8.225 8.83929 8.5 8.83929H9.5C9.775 8.83929 10 8.6183 10 8.34821V7.36607C10 7.09598 9.775 6.875 9.5 6.875H8.5C8.225 6.875 8 7.09598 8 7.36607V8.34821ZM2.5 2.94643C2.22375 2.94643 2 3.16741 2 3.4375V4.41964C2 4.68973 2.22375 4.91071 2.5 4.91071H3.5C3.775 4.91071 4 4.68973 4 4.41964V3.4375C4 3.16741 3.775 2.94643 3.5 2.94643H2.5ZM5 4.41964C5 4.68973 5.225 4.91071 5.5 4.91071H6.5C6.775 4.91071 7 4.68973 7 4.41964V3.4375C7 3.16741 6.775 2.94643 6.5 2.94643H5.5C5.225 2.94643 5 3.16741 5 3.4375V4.41964ZM8.5 2.94643C8.225 2.94643 8 3.16741 8 3.4375V4.41964C8 4.68973 8.225 4.91071 8.5 4.91071H9.5C9.775 4.91071 10 4.68973 10 4.41964V3.4375C10 3.16741 9.775 2.94643 9.5 2.94643H8.5ZM18 8.34821C18 9.7048 16.8813 10.8036 15.5 10.8036C14.1187 10.8036 13 9.7048 13 8.34821C13 6.99163 14.1187 5.89286 15.5 5.89286C16.8813 5.89286 18 6.99163 18 8.34821ZM11 14.6431C11 13.0656 12.3031 11.7857 13.9094 11.7857H17.0906C18.6969 11.7857 20 13.0656 20 14.6431C20 15.2355 19.5125 15.7143 18.9094 15.7143H12.0906C11.4875 15.7143 11 15.2355 11 14.6431Z" fill="#2A4E96"/>
</g>
<defs>
<clipPath id="clip0_101_137">
<rect width="20" height="15.7143" fill="white"/>
</clipPath>
</defs>
</svg>
