<svg width="41" height="41" viewBox="0 0 41 41" fill="none" xmlns="http://www.w3.org/2000/svg">
<rect x="0.5" y="0.5" width="40" height="40" stroke="#283593"/>
<path d="M28.3125 13.25C29.2441 13.25 30 14.0055 30 14.9375C30 15.4684 29.7504 15.9676 29.325 16.2875L21.675 22.025C21.2742 22.3238 20.7258 22.3238 20.325 22.025L12.675 16.2875C12.2501 15.9676 12 15.4684 12 14.9375C12 14.0055 12.7555 13.25 13.6875 13.25H28.3125ZM19.65 22.925C20.4516 23.5262 21.5484 23.5262 22.35 22.925L30 17.1875V24.5C30 25.741 28.991 26.75 27.75 26.75H14.25C13.0072 26.75 12 25.741 12 24.5V17.1875L19.65 22.925Z" fill="#283593"/>
</svg>
