<svg width="42" height="41" viewBox="0 0 42 41" fill="none" xmlns="http://www.w3.org/2000/svg">
<path d="M30.1652 15.1168C30.1652 17.3559 28.3789 19.1048 26.1772 19.1048C25.1013 19.1048 24.1251 18.7185 23.4106 18.0247L19.5016 19.9772C19.5223 20.1392 19.4932 20.268 19.4932 20.4715C19.4932 20.6377 19.5223 20.7665 19.5016 20.9659L23.4106 22.9183C24.1251 22.2246 25.1013 21.8009 26.1772 21.8009C28.3789 21.8009 30.1652 23.5497 30.1652 25.7888C30.1652 27.9905 28.3789 29.7768 26.1772 29.7768C23.9382 29.7768 22.1893 27.9905 22.1893 25.7888C22.1893 25.5853 22.1976 25.4565 22.2184 25.2945L18.3093 23.342C17.5948 24.0358 16.6186 24.4595 15.5427 24.4595C13.3401 24.4595 11.5547 22.6732 11.5547 20.4715C11.5547 18.2324 13.3401 16.4836 15.5427 16.4836C16.6186 16.4836 17.5948 16.9073 18.3093 17.601L22.2184 15.6486C22.1976 15.4492 22.1893 15.3204 22.1893 15.1542C22.1893 12.9517 23.9382 11.1663 26.1772 11.1663C28.3789 11.1663 30.1652 12.9517 30.1652 15.1542V15.1168ZM15.5053 21.7635C16.2779 21.7635 16.8346 21.2068 16.8346 20.4341C16.8346 19.7362 16.2779 19.1048 15.5053 19.1048C14.8086 19.1048 14.1759 19.7362 14.1759 20.4341C14.1759 21.2068 14.8086 21.7635 15.5053 21.7635ZM26.1772 13.7875C25.442 13.7875 24.8479 14.4189 24.8479 15.1168C24.8479 15.8895 25.442 16.4462 26.1772 16.4462C26.9125 16.4462 27.5066 15.8895 27.5066 15.1168C27.5066 14.4189 26.9125 13.7875 26.1772 13.7875ZM26.1772 27.1181C26.9125 27.1181 27.5066 26.5241 27.5066 25.7888C27.5066 25.0535 26.9125 24.4595 26.1772 24.4595C25.442 24.4595 24.8479 25.0535 24.8479 25.7888C24.8479 26.5241 25.442 27.1181 26.1772 27.1181Z" fill="#283593"/>
<rect x="0.887695" y="0.5" width="39.9432" height="39.9432" stroke="#283593"/>
</svg>
