<svg width="92" height="20" viewBox="0 0 92 20" fill="none" xmlns="http://www.w3.org/2000/svg">
<path d="M41.9932 4.86523L44.1331 11.8734H44.2125L46.3523 4.86523H48.9407L45.7122 14.4337H42.6333L39.4049 4.86523H41.9932Z" fill="white"/>
<path d="M51.6812 14.4337V4.86523H58.353V6.74342H53.9939V8.7057H58.0119V10.5886H53.9939V12.5555H58.353V14.4337H51.6812Z" fill="white"/>
<path d="M69.6552 4.86523V14.4337H67.6929L63.8851 8.91127H63.8244V14.4337H61.5117V4.86523H63.502L67.2677 10.3783H67.3471V4.86523H69.6552Z" fill="white"/>
<path d="M72.5067 6.74342V4.86523H80.5941V6.74342H77.6927V14.4337H75.4127V6.74342H72.5067Z" fill="white"/>
<path d="M89.2226 4.86523H91.5307V11.0371C91.5307 11.7503 91.3609 12.3717 91.0214 12.9012C90.6819 13.4276 90.2085 13.8357 89.6011 14.1253C88.9937 14.4119 88.2882 14.5552 87.4846 14.5552C86.6717 14.5552 85.9615 14.4119 85.3541 14.1253C84.7468 13.8357 84.2749 13.4276 83.9385 12.9012C83.6021 12.3717 83.4339 11.7503 83.4339 11.0371V4.86523H85.7466V10.8362C85.7466 11.1663 85.8182 11.4607 85.9615 11.7192C86.1079 11.9777 86.3119 12.1802 86.5736 12.3266C86.8352 12.473 87.1389 12.5462 87.4846 12.5462C87.8304 12.5462 88.1325 12.473 88.391 12.3266C88.6526 12.1802 88.8567 11.9777 89.0031 11.7192C89.1494 11.4607 89.2226 11.1663 89.2226 10.8362V4.86523Z" fill="white"/>
<g clip-path="url(#clip0_10_1751)">
<path d="M0.566288 3.62451C1.49466 4.96429 2.07492 5.82955 2.68365 6.67457C4.07385 8.6044 5.51694 8.8992 7.50679 7.62948C8.62306 6.91719 9.68014 6.11304 10.7995 5.40588C12.4447 4.36646 13.7422 4.55972 15.0278 6.05497C15.7519 6.89722 16.3558 7.84042 17.0585 8.70221C18.1834 10.0818 19.5988 10.3399 21.1392 9.46538C21.6229 9.19081 22.0646 8.84353 22.5281 8.53335C24.0934 7.48578 25.5247 6.16051 27.8573 6.33476C27.037 5.15088 26.42 4.23056 25.7724 3.332C24.36 1.37219 22.8361 1.08355 20.7541 2.39923C19.8115 2.99484 18.9174 3.66577 17.9813 4.27189C15.7222 5.73453 14.5909 5.53041 13.0419 3.39927C12.5921 2.78047 12.1926 2.12379 11.719 1.52421C10.6889 0.219885 9.46739 -0.0143266 8.05381 0.846312C7.16154 1.38956 6.2949 1.98226 5.46157 2.61136C4.13833 3.6103 2.74765 4.31062 0.566284 3.6245L0.566288 3.62451Z" fill="#4DB6AC"/>
<path d="M7.05494 12.9898C7.89465 14.2016 8.50893 15.1218 9.15753 16.0174C10.6599 18.0919 12.458 18.4304 14.5693 17.039C15.561 16.3854 16.519 15.6807 17.5182 15.0391C19.351 13.8621 20.46 14.0431 21.8467 15.7518C22.373 16.4002 22.8052 17.1232 23.3174 17.7837C24.4799 19.2829 25.7254 19.5273 27.3269 18.5426C28.2189 17.9942 29.0811 17.3933 29.9255 16.774C31.1481 15.8773 32.427 15.2224 34.3976 15.7793C33.5482 14.5534 32.9313 13.6403 32.291 12.7439C30.9497 10.8661 29.655 10.6201 27.6667 11.8908C26.6073 12.5679 25.6003 13.3265 24.5362 13.9958C22.7417 15.1245 21.2804 14.8896 19.9187 13.2851C19.6041 12.9144 19.3194 12.5114 19.07 12.0942C17.171 8.91801 15.6994 8.82402 12.834 10.9758C11.2284 12.1815 9.59269 13.416 7.05493 12.9898L7.05494 12.9898Z" fill="#4DB6AC"/>
<path d="M0.566284 3.6245C2.74765 4.31062 4.13833 3.6103 5.46157 2.61136C6.29489 1.98226 7.16154 1.38956 8.05381 0.846313C9.4674 -0.0143254 10.6889 0.219882 11.719 1.52421C12.1926 2.12379 12.5921 2.78046 13.0419 3.39927C14.591 5.53042 15.7222 5.73454 17.9813 4.27189C18.9174 3.66576 19.8115 2.99484 20.7541 2.39923C22.8361 1.08355 24.36 1.37219 25.7724 3.332C26.42 4.23057 27.037 5.15088 27.8573 6.33477C25.5247 6.16051 24.0934 7.48578 22.5281 8.53336C22.0646 8.84354 21.6229 9.19081 21.1392 9.46538C19.5987 10.3399 18.1834 10.0818 17.0585 8.70222C16.3558 7.84042 15.7519 6.89722 15.0278 6.05497C13.7422 4.55972 12.4447 4.36646 10.7995 5.40588C9.68014 6.11304 8.62306 6.91719 7.50679 7.62948C5.51694 8.89921 4.07385 8.60441 2.68365 6.67457C2.07493 5.82955 1.49466 4.9643 0.566288 3.62451L0.566284 3.6245Z" fill="#4DB6AC"/>
<path d="M7.05493 12.9898C9.59269 13.416 11.2284 12.1815 12.834 10.9758C15.6994 8.82402 17.171 8.91801 19.07 12.0942C19.3194 12.5114 19.6041 12.9143 19.9187 13.2851C21.2804 14.8896 22.7417 15.1245 24.5362 13.9958C25.6003 13.3265 26.6073 12.5679 27.6667 11.8908C29.655 10.6201 30.9497 10.8661 32.291 12.7439C32.9313 13.6403 33.5482 14.5534 34.3976 15.7793C32.427 15.2224 31.1481 15.8773 29.9255 16.774C29.0811 17.3933 28.2189 17.9942 27.3269 18.5426C25.7254 19.5273 24.4799 19.2829 23.3174 17.7837C22.8052 17.1232 22.373 16.4002 21.8467 15.7518C20.46 14.0431 19.351 13.8621 17.5182 15.0391C16.519 15.6807 15.561 16.3854 14.5693 17.039C12.458 18.4304 10.6599 18.0919 9.15753 16.0174C8.50894 15.1218 7.89465 14.2016 7.05494 12.9898L7.05493 12.9898Z" fill="#4DB6AC"/>
</g>
<defs>
<clipPath id="clip0_10_1751">
<rect width="33.8313" height="18.7952" fill="white" transform="translate(0.566284 0.337402)"/>
</clipPath>
</defs>
</svg>
